<svg xmlns="http://www.w3.org/2000/svg" width="1280" height="720" viewBox="0 0 1280 720">
  <defs>
    <radialGradient id="g" cx="50%" cy="10%" r="90%">
      <stop offset="0%" stop-color="#FFD873" stop-opacity="0.18"/>
      <stop offset="60%" stop-color="#0D1625" stop-opacity="0"/>
    </radialGradient>
    <linearGradient id="gold" x1="0" y1="0" x2="1" y2="1">
      <stop offset="0%" stop-color="#FFD873"/>
      <stop offset="100%" stop-color="#8FB7A5"/>
    </linearGradient>
    <filter id="soft" x="-20%" y="-20%" width="140%" height="140%">
      <feGaussianBlur stdDeviation="6"/>
    </filter>
  </defs>
  <rect width="1280" height="720" fill="#0D1625"/>
  <rect width="1280" height="720" fill="url(#g)"/>
  <!-- Abstract blobs -->
  <g opacity=".25" filter="url(#soft)">
    <circle cx="1040" cy="120" r="120" fill="#FFD873"/>
    <circle cx="220" cy="560" r="160" fill="#8FB7A5"/>
  </g>
  <!-- Person silhouette -->
  <g transform="translate(420,180)" fill="none" stroke="url(#gold)" stroke-width="4">
    <circle cx="220" cy="80" r="48"/>
    <path d="M80,340c0-90 70-160 160-160s160 70 160 160" stroke-width="6"/>
    <path d="M120,340h240"/>
  </g>
  <!-- Icons -->
  <g fill="#FFD873" opacity=".85">
    <path d="M1060 420c30-40 84-16 78 28-6 44-62 58-78 92-16-34-72-48-78-92-6-44 48-68 78-28z"/>
  </g>
</svg>

